<svg xmlns="http://www.w3.org/2000/svg" viewBox="0 0 13 13"><defs><style>.cls-1{fill:#fff;}</style></defs><g id="Camada_2" data-name="Camada 2"><g id="Tweet"><path class="cls-1" d="M7.87,0H5.13A5.09,5.09,0,0,0,0,5.14,4.88,4.88,0,0,0,4.91,10v2.52a.56.56,0,0,0,.08.26.51.51,0,0,0,.42.23.5.5,0,0,0,.26-.08C5.85,12.81,9.93,10.2,11,9.3a5.55,5.55,0,0,0,2-4.16h0A5.08,5.08,0,0,0,7.87,0Zm2.49,8.53c-.75.64-3.2,2.25-4.46,3.06V9.5A.49.49,0,0,0,5.41,9H5.15A3.89,3.89,0,0,1,1,5.14,4.1,4.1,0,0,1,5.13,1H7.86A4.1,4.1,0,0,1,12,5.14,4.54,4.54,0,0,1,10.36,8.54Z"/></g></g></svg>