<svg xmlns="http://www.w3.org/2000/svg" viewBox="0 0 13.23 12.45"><defs><style>.cls-1{fill:#fff;}</style></defs><g id="Camada_2" data-name="Camada 2"><g id="Tweet"><path class="cls-1" d="M6.61,12.45h0C4.91,12.42,0,8,0,3.79A3.77,3.77,0,0,1,3.56,0,3.83,3.83,0,0,1,6.61,1.8,3.86,3.86,0,0,1,9.67,0a3.77,3.77,0,0,1,3.56,3.79c0,4.2-4.91,8.63-6.61,8.66ZM3.56,1A2.76,2.76,0,0,0,1,3.79c0,3.78,4.63,7.63,5.62,7.67s5.63-3.89,5.63-7.67A2.76,2.76,0,0,0,9.67,1C8,1,7.08,2.92,7.07,2.94a.51.51,0,0,1-.91,0S5.22,1,3.56,1Z"/></g></g></svg>