<svg xmlns="http://www.w3.org/2000/svg" viewBox="0 0 13.16 11.93"><defs><style>.cls-1{fill:#fff;}</style></defs><g id="Camada_2" data-name="Camada 2"><g id="Tweet"><path class="cls-1" d="M11.68,0H1.48A1.48,1.48,0,0,0,0,1.48v9a1.48,1.48,0,0,0,1.48,1.48h10.2a1.48,1.48,0,0,0,1.48-1.48v-9A1.48,1.48,0,0,0,11.68,0ZM1.48,1h10.2a.49.49,0,0,1,.5.49v.8L6.88,5.81a.53.53,0,0,1-.59,0L1,2.28v-.8A.49.49,0,0,1,1.48,1Zm10.2,10H1.48A.49.49,0,0,1,1,10.45v-7L5.75,6.61a1.5,1.5,0,0,0,1.66,0l4.77-3.17v7A.49.49,0,0,1,11.68,10.94Z"/></g></g></svg>