<svg xmlns="http://www.w3.org/2000/svg" viewBox="0 0 17.1 11.45"><defs><style>.cls-1{fill:#fff;}</style></defs><g id="Camada_2" data-name="Camada 2"><g id="Tweet"><path class="cls-1" d="M17,8a.5.5,0,0,0-.7,0L14.58,9.64V2.47A2.47,2.47,0,0,0,12.12,0H7.74a.5.5,0,0,0-.5.49.5.5,0,0,0,.5.5h4.38A1.48,1.48,0,0,1,13.6,2.47V9.64L11.92,8a.49.49,0,0,0-.7.7l2.52,2.52a.51.51,0,0,0,.7,0L17,8.66A.5.5,0,0,0,17,8Z"/><path class="cls-1" d="M9.36,10.47H5A1.49,1.49,0,0,1,3.51,9V1.82L5.18,3.49a.48.48,0,0,0,.7,0,.5.5,0,0,0,0-.7L3.36.28a.48.48,0,0,0-.7,0L.14,2.79a.5.5,0,0,0,0,.7.5.5,0,0,0,.7,0L2.52,1.82V9A2.47,2.47,0,0,0,5,11.45H9.36a.49.49,0,1,0,0-1Z"/></g></g></svg>