<svg xmlns="http://www.w3.org/2000/svg" viewBox="0 0 12.09 12.09"><defs><style>.cls-1{fill:#fff;}</style></defs><g id="Camada_2" data-name="Camada 2"><g id="Tweet"><path class="cls-1" d="M12.09,6.33a2.32,2.32,0,0,0-1.24-2.07A2.38,2.38,0,0,0,11,3.45a2.26,2.26,0,0,0-2.2-2.3A2,2,0,0,0,8,1.3a2.16,2.16,0,0,0-4,0,1.91,1.91,0,0,0-.76-.15,2.25,2.25,0,0,0-2.2,2.3,2.38,2.38,0,0,0,.14.81A2.3,2.3,0,0,0,0,6.33a2.33,2.33,0,0,0,1.12,2,2.64,2.64,0,0,0,0,.29,2.25,2.25,0,0,0,2.2,2.3,1.9,1.9,0,0,0,.76-.14,2.16,2.16,0,0,0,4,0,2,2,0,0,0,.77.14A2.26,2.26,0,0,0,11,8.63a2.64,2.64,0,0,0,0-.29A2.35,2.35,0,0,0,12.09,6.33ZM8.28,4.41,5.78,8.15a.42.42,0,0,1-.36.2.4.4,0,0,1-.23-.08l-.07,0L3.73,6.83a.43.43,0,0,1,.61-.61l1,1,2.2-3.31a.43.43,0,0,1,.72.48Z"/></g></g></svg>